<?xml version="1.0" encoding="UTF-8" ?>
<svg id="Layer_1" data-name="Layer 1" xmlns="http://www.w3.org/2000/svg" viewBox="0 0 605 304"><defs><style>.cls-1{fill:#fff;}.cls-2{fill:#1a0134;}</style></defs><path class="cls-1" d="M608.5,304H3.5V0h605ZM20.08,152.08c0,.42,0,.77,0,1.11a118.13,118.13,0,0,0,1.55,12.86,80.09,80.09,0,0,0,9.19,25.78A57.86,57.86,0,0,0,64.1,218.49a65.44,65.44,0,0,0,14.79,3,103.38,103.38,0,0,0,25.34-1A91.87,91.87,0,0,0,114.85,218a65,65,0,0,0,9.76-3.82,53.94,53.94,0,0,0,13.11-8.89,48.93,48.93,0,0,0,11.48-16,59,59,0,0,0,4.87-19.82,69.38,69.38,0,0,0-1.46-21.6,41.32,41.32,0,0,0-19.55-26.79A66,66,0,0,0,119.18,115c-3-1-6.12-1.81-9.23-2.53-4.16-1-8.35-1.79-12.54-2.59-4.55-.86-9.12-1.67-13.68-2.43a84.77,84.77,0,0,1-15.52-4A32.92,32.92,0,0,1,59,98.51a18.93,18.93,0,0,1-6.78-10.27A29.69,29.69,0,0,1,52,75,24.71,24.71,0,0,1,65.32,57a35.21,35.21,0,0,1,11.39-3.64c6.58-1,13.18-1.17,19.74.46a32.36,32.36,0,0,1,21.9,17.5,52,52,0,0,1,5.1,18.35c.17,1.65.26,3.3.39,4.93,1.58.28,24.88.21,25.94-.11-.29-2.87-.54-5.78-.89-8.68a83.11,83.11,0,0,0-4.91-20,61.6,61.6,0,0,0-12.33-20.11,52.93,52.93,0,0,0-15-11.28,56.66,56.66,0,0,0-14.74-5.06,71.64,71.64,0,0,0-12.73-1.45,95.67,95.67,0,0,0-21.61,2,73,73,0,0,0-9.07,2.53,54.56,54.56,0,0,0-13,6.55,44.88,44.88,0,0,0-10,9.36c-5.85,7.52-8.94,16.15-10.13,25.52a73.15,73.15,0,0,0-.33,15.23,51.2,51.2,0,0,0,2.82,13.42A37.33,37.33,0,0,0,38.55,118a48.25,48.25,0,0,0,12.08,7.52,73.41,73.41,0,0,0,10.27,3.67q4.86,1.4,9.82,2.42c4.84,1,9.73,1.8,14.59,2.71,4.29.8,8.57,1.65,12.85,2.46a65.08,65.08,0,0,1,9.09,2.51,39.59,39.59,0,0,1,10.34,5.12,22.37,22.37,0,0,1,8.77,12.26,34.16,34.16,0,0,1,.84,14.19,26.67,26.67,0,0,1-11,18.76,37.38,37.38,0,0,1-14.41,6.12A65.72,65.72,0,0,1,93,197a51,51,0,0,1-18.46-1.72,38.21,38.21,0,0,1-10.65-5.07A35.63,35.63,0,0,1,52.9,178a54.94,54.94,0,0,1-6.39-21.44c-.15-1.47-.26-2.95-.39-4.48Zm140-60.88q17.25,64.12,34.49,128.18h20.6c-4.77,19.26-9.51,38.39-14.28,57.62h24.42L274.06,91.21H247Q232,151.15,217.16,211s-.07,0-.11.07l-.16,0Q202.06,151.15,187.2,91.2ZM308,219.27v-1.7q0-32.32,0-64.64c0-2.88.08-5.77.32-8.64a44.48,44.48,0,0,1,4.37-16.6c3.94-7.85,10.21-12.67,18.92-14a26.8,26.8,0,0,1,15.34,1.93,20.1,20.1,0,0,1,6.51,4.7,25.38,25.38,0,0,1,5.77,11,46.9,46.9,0,0,1,1.37,12v75.86h25.17v-1.69q0-37.72,0-75.46c0-3.41-.24-6.84-.54-10.24a60.84,60.84,0,0,0-3.51-15.63,43.68,43.68,0,0,0-8.16-14A35.23,35.23,0,0,0,359,92.29,45.28,45.28,0,0,0,346.81,90a40.49,40.49,0,0,0-6.87.25,37.54,37.54,0,0,0-13.9,4,32.08,32.08,0,0,0-7.85,5.65,39,39,0,0,0-9,14.09c-.35.89-.67,1.78-1,2.68l-.26-.05V91.22h-25V219.27ZM521.38,91.13H467.9a30,30,0,0,0,7.83-6.35,41.85,41.85,0,0,0,7.47-12,34.61,34.61,0,0,0,3-12.94c.05-4.55.05-9.1.07-13.65a3.23,3.23,0,0,0-.1-.55H461V91.18H442.32v23.14H459.5V116q0,32.91,0,65.84a53.56,53.56,0,0,0,2,15.21c2.73,9.22,7.83,16.57,16.68,21a33.12,33.12,0,0,0,11.42,3.4,54,54,0,0,0,18-1,61.85,61.85,0,0,0,10-3.27c.82-.35,1.58-.82,2.28-1.19V193.55a11.5,11.5,0,0,0-1.3.62,29.21,29.21,0,0,1-9,3.48c-.79.18-1.61.23-2.4.39a21.88,21.88,0,0,1-13.31-1.44,14,14,0,0,1-7.2-7.32,25.13,25.13,0,0,1-1.93-10.8q0-31.36,0-62.74v-1.43h36.67Zm-117.32.07c-.28,2.27-.18,127.1.09,128.06h24.93V91.2Zm155.57,128v-128h-25v128ZM561.5,59.72a26.75,26.75,0,0,0-.22-2.83,20.74,20.74,0,0,0-.92-3.37,14.24,14.24,0,0,0-8.55-9,12.88,12.88,0,0,0-14.92,4c-4.5,5.35-5.3,11.49-2.79,18A14,14,0,0,0,543,75.14c5.5,1.77,10.44.23,14.23-3.93A16.26,16.26,0,0,0,561.5,59.72Zm-130.38,0a49.59,49.59,0,0,0-1-5.14c-1.41-4.74-4.31-8.39-9-10.07a12.92,12.92,0,0,0-14.88,4.08c-4.16,4.94-5.06,10.64-3.16,16.73a14.35,14.35,0,0,0,9.15,9.79,12.69,12.69,0,0,0,13.12-2.65C429.16,69.12,430.85,64.77,431.12,59.71Z" transform="translate(-3.5)"/><path class="cls-2" d="M20.08,152.08h26c.13,1.53.24,3,.39,4.48A54.94,54.94,0,0,0,52.9,178a35.63,35.63,0,0,0,11,12.25,38.21,38.21,0,0,0,10.65,5.07A51,51,0,0,0,93,197a65.72,65.72,0,0,0,8.82-1.26,37.38,37.38,0,0,0,14.41-6.12,26.67,26.67,0,0,0,11-18.76,34.16,34.16,0,0,0-.84-14.19,22.37,22.37,0,0,0-8.77-12.26,39.59,39.59,0,0,0-10.34-5.12,65.08,65.08,0,0,0-9.09-2.51c-4.28-.81-8.56-1.66-12.85-2.46-4.86-.91-9.75-1.72-14.59-2.71q-4.95-1-9.82-2.42a73.41,73.41,0,0,1-10.27-3.67A48.25,48.25,0,0,1,38.55,118a37.33,37.33,0,0,1-10.63-15.53A51.2,51.2,0,0,1,25.1,89.09a73.15,73.15,0,0,1,.33-15.23c1.19-9.37,4.28-18,10.13-25.52a44.88,44.88,0,0,1,10-9.36,54.56,54.56,0,0,1,13-6.55,73,73,0,0,1,9.07-2.53,95.67,95.67,0,0,1,21.61-2,71.64,71.64,0,0,1,12.73,1.45,56.66,56.66,0,0,1,14.74,5.06,52.93,52.93,0,0,1,15,11.28A61.6,61.6,0,0,1,144,65.83a83.11,83.11,0,0,1,4.91,20c.35,2.9.6,5.81.89,8.68-1.06.32-24.36.39-25.94.11-.13-1.63-.22-3.28-.39-4.93a52,52,0,0,0-5.1-18.35,32.36,32.36,0,0,0-21.9-17.5c-6.56-1.63-13.16-1.42-19.74-.46A35.21,35.21,0,0,0,65.32,57,24.71,24.71,0,0,0,52,75a29.69,29.69,0,0,0,.22,13.26A18.93,18.93,0,0,0,59,98.51a32.92,32.92,0,0,0,9.21,4.95,84.77,84.77,0,0,0,15.52,4c4.56.76,9.13,1.57,13.68,2.43,4.19.8,8.38,1.63,12.54,2.59,3.11.72,6.2,1.55,9.23,2.53a66,66,0,0,1,13.88,6.15,41.32,41.32,0,0,1,19.55,26.79,69.38,69.38,0,0,1,1.46,21.6,59,59,0,0,1-4.87,19.82,48.93,48.93,0,0,1-11.48,16,53.94,53.94,0,0,1-13.11,8.89,65,65,0,0,1-9.76,3.82,91.87,91.87,0,0,1-10.62,2.47,103.38,103.38,0,0,1-25.34,1,65.44,65.44,0,0,1-14.79-3,57.86,57.86,0,0,1-33.27-26.66,80.09,80.09,0,0,1-9.19-25.78,118.13,118.13,0,0,1-1.55-12.86C20.06,152.85,20.08,152.5,20.08,152.08Z" transform="translate(-3.5)"/><path class="cls-2" d="M160.05,91.2H187.2q14.85,60,29.69,119.89l.16,0s.11,0,.11-.07Q232.06,151.13,247,91.21h27.11L225.28,277H200.86c4.77-19.23,9.51-38.36,14.28-57.62h-20.6Q177.28,155.27,160.05,91.2Z" transform="translate(-3.5)"/><path class="cls-2" d="M308,219.27H282.91v-128h25v25.35l.26.05c.33-.9.65-1.79,1-2.68a39,39,0,0,1,9-14.09A32.08,32.08,0,0,1,326,94.2a37.54,37.54,0,0,1,13.9-4,40.49,40.49,0,0,1,6.87-.25A45.28,45.28,0,0,1,359,92.29a35.23,35.23,0,0,1,14.56,9.89,43.68,43.68,0,0,1,8.16,14,60.84,60.84,0,0,1,3.51,15.63c.3,3.4.53,6.83.54,10.24q.06,37.73,0,75.46v1.69H360.59V143.36a46.9,46.9,0,0,0-1.37-12,25.38,25.38,0,0,0-5.77-11,20.1,20.1,0,0,0-6.51-4.7,26.8,26.8,0,0,0-15.34-1.93c-8.71,1.33-15,6.15-18.92,14a44.48,44.48,0,0,0-4.37,16.6c-.24,2.87-.32,5.76-.32,8.64q0,32.32,0,64.64Z" transform="translate(-3.5)"/><path class="cls-2" d="M521.38,91.13v23.18H484.71v1.43q0,31.37,0,62.74a25.13,25.13,0,0,0,1.93,10.8,14,14,0,0,0,7.2,7.32A21.88,21.88,0,0,0,507.15,198c.79-.16,1.61-.21,2.4-.39a29.21,29.21,0,0,0,9-3.48,11.5,11.5,0,0,1,1.3-.62V216c-.7.37-1.46.84-2.28,1.19a61.85,61.85,0,0,1-10,3.27,54,54,0,0,1-18,1,33.12,33.12,0,0,1-11.42-3.4c-8.85-4.41-13.95-11.76-16.68-21a53.56,53.56,0,0,1-2-15.21q0-32.92,0-65.84v-1.72H442.32V91.18H461V45.69h25.15a3.23,3.23,0,0,1,.1.55c0,4.55,0,9.1-.07,13.65a34.61,34.61,0,0,1-3,12.94,41.85,41.85,0,0,1-7.47,12,30,30,0,0,1-7.83,6.35Z" transform="translate(-3.5)"/><path class="cls-2" d="M404.06,91.2h25V219.26H404.15C403.88,218.3,403.78,93.47,404.06,91.2Z" transform="translate(-3.5)"/><path class="cls-2" d="M559.63,219.24h-25v-128h25Z" transform="translate(-3.5)"/><path class="cls-2" d="M561.5,59.72a16.26,16.26,0,0,1-4.29,11.49c-3.79,4.16-8.73,5.7-14.23,3.93a14,14,0,0,1-8.88-8.67c-2.51-6.48-1.71-12.62,2.79-18a12.88,12.88,0,0,1,14.92-4,14.24,14.24,0,0,1,8.55,9,20.74,20.74,0,0,1,.92,3.37A26.75,26.75,0,0,1,561.5,59.72Z" transform="translate(-3.5)"/><path class="cls-2" d="M431.12,59.71c-.27,5.06-2,9.41-5.76,12.74a12.69,12.69,0,0,1-13.12,2.65,14.35,14.35,0,0,1-9.15-9.79c-1.9-6.09-1-11.79,3.16-16.73a12.92,12.92,0,0,1,14.88-4.08c4.69,1.68,7.59,5.33,9,10.07A49.59,49.59,0,0,1,431.12,59.71Z" transform="translate(-3.5)"/></svg>